<svg width="35" height="36" viewBox="0 0 35 36" fill="none" xmlns="http://www.w3.org/2000/svg">
<path d="M17.2894 0.90918C7.93409 0.90918 0.324219 8.17557 0.324219 17.1071C0.324219 22.6306 3.30455 27.7977 8.15431 30.7587V33.305C8.15431 33.9924 8.4293 34.6516 8.91878 35.1376C9.40825 35.6236 10.0721 35.8967 10.7643 35.8967H12.0694C12.2424 35.8967 12.4084 35.8284 12.5308 35.7069C12.6531 35.5854 12.7219 35.4206 12.7219 35.2488V30.7571C12.7173 30.4227 12.8405 30.0989 13.0666 29.851C13.2926 29.6031 13.6048 29.4494 13.9404 29.4208C14.1189 29.409 14.298 29.4338 14.4664 29.4936C14.6349 29.5534 14.7891 29.647 14.9196 29.7686C15.0501 29.8901 15.1541 30.0369 15.225 30.2C15.2959 30.3631 15.3323 30.5389 15.3319 30.7166V35.252C15.3319 35.4238 15.4006 35.5886 15.523 35.7102C15.6454 35.8317 15.8114 35.8999 15.9844 35.8999H18.5944C18.7675 35.8999 18.9335 35.8317 19.0558 35.7102C19.1782 35.5886 19.247 35.4238 19.247 35.252V30.7571C19.2424 30.4227 19.3656 30.0989 19.5916 29.851C19.8177 29.6031 20.1299 29.4494 20.4655 29.4208C20.644 29.409 20.8231 29.4338 20.9915 29.4936C21.16 29.5534 21.3142 29.647 21.4447 29.7686C21.5752 29.8901 21.6791 30.0369 21.7501 30.2C21.821 30.3631 21.8574 30.5389 21.857 30.7166V35.252C21.857 35.4238 21.9257 35.5886 22.0481 35.7102C22.1705 35.8317 22.3364 35.8999 22.5095 35.8999H23.8145C24.5067 35.8999 25.1706 35.6269 25.6601 35.1408C26.1496 34.6548 26.4245 33.9956 26.4245 33.3083V30.7587C31.2743 27.7977 34.2546 22.6306 34.2546 17.1071C34.2546 8.17557 26.6448 0.90918 17.2894 0.90918ZM11.4169 22.9383C10.7716 22.9383 10.1408 22.7483 9.60429 22.3924C9.06776 22.0364 8.64959 21.5305 8.40266 20.9385C8.15573 20.3465 8.09112 19.6952 8.217 19.0668C8.34289 18.4383 8.65362 17.8611 9.10989 17.408C9.56616 16.955 10.1475 16.6464 10.7804 16.5214C11.4132 16.3964 12.0692 16.4606 12.6654 16.7058C13.2615 16.951 13.7711 17.3662 14.1296 17.8989C14.4881 18.4317 14.6794 19.058 14.6794 19.6988C14.6794 20.558 14.3357 21.382 13.7238 21.9895C13.112 22.597 12.2821 22.9383 11.4169 22.9383ZM23.162 22.9383C22.5167 22.9383 21.886 22.7483 21.3494 22.3924C20.8129 22.0364 20.3947 21.5305 20.1478 20.9385C19.9009 20.3465 19.8363 19.6952 19.9621 19.0668C20.088 18.4383 20.3988 17.8611 20.855 17.408C21.3113 16.955 21.8926 16.6464 22.5255 16.5214C23.1584 16.3964 23.8144 16.4606 24.4105 16.7058C25.0067 16.951 25.5162 17.3662 25.8747 17.8989C26.2332 18.4317 26.4245 19.058 26.4245 19.6988C26.4245 20.558 26.0808 21.382 25.469 21.9895C24.8571 22.597 24.0273 22.9383 23.162 22.9383Z" fill="white"/>
</svg>
