<svg width="29" height="28" viewBox="0 0 29 28" fill="none" xmlns="http://www.w3.org/2000/svg">
<path d="M14.3838 0.353516C11.6576 0.353516 8.99254 1.16195 6.72574 2.67658C4.45893 4.19121 2.69217 6.34401 1.64888 8.86275C0.605582 11.3815 0.332608 14.153 0.864476 16.8269C1.39634 19.5008 2.70916 21.9569 4.63692 23.8847C6.56468 25.8124 9.0208 27.1252 11.6947 27.6571C14.3686 28.189 17.1401 27.916 19.6588 26.8727C22.1776 25.8294 24.3304 24.0627 25.845 21.7959C27.3596 19.529 28.1681 16.864 28.1681 14.1377C28.1642 10.4831 26.7107 6.97929 24.1265 4.39509C21.5423 1.81088 18.0385 0.357375 14.3838 0.353516ZM8.02189 15.7282C8.02189 15.4137 8.11517 15.1062 8.28994 14.8446C8.4647 14.5831 8.71311 14.3792 9.00373 14.2588C9.29435 14.1384 9.61415 14.1069 9.92267 14.1683C10.2312 14.2297 10.5146 14.3812 10.737 14.6036C10.9595 14.826 11.1109 15.1094 11.1723 15.4179C11.2337 15.7265 11.2022 16.0463 11.0818 16.3369C10.9614 16.6275 10.7576 16.8759 10.496 17.0507C10.2345 17.2254 9.92695 17.3187 9.61238 17.3187C9.19056 17.3187 8.78601 17.1512 8.48774 16.8529C8.18946 16.5546 8.02189 16.1501 8.02189 15.7282ZM18.4475 22.1472C18.2918 22.3813 18.0494 22.5439 17.7738 22.5993C17.4982 22.6547 17.2118 22.5984 16.9777 22.4427C16.1162 21.8702 15.4442 21.56 14.3838 21.56C13.3235 21.56 12.6515 21.8702 11.79 22.4427C11.5559 22.5927 11.2723 22.6446 11.0002 22.5874C10.7281 22.5302 10.4894 22.3685 10.3354 22.137C10.1815 21.9055 10.1246 21.6229 10.177 21.3498C10.2294 21.0768 10.387 20.8353 10.6157 20.6773C11.733 19.9338 12.8013 19.4394 14.3838 19.4394C15.9664 19.4394 17.0347 19.9338 18.152 20.6773C18.3861 20.8331 18.5487 21.0754 18.6041 21.351C18.6595 21.6267 18.6032 21.9131 18.4475 22.1472ZM19.1553 17.3187C18.8407 17.3187 18.5332 17.2254 18.2717 17.0507C18.0101 16.8759 17.8063 16.6275 17.6859 16.3369C17.5655 16.0463 17.534 15.7265 17.5954 15.4179C17.6568 15.1094 17.8082 14.826 18.0307 14.6036C18.2531 14.3812 18.5365 14.2297 18.845 14.1683C19.1535 14.1069 19.4733 14.1384 19.764 14.2588C20.0546 14.3792 20.303 14.5831 20.4778 14.8446C20.6525 15.1062 20.7458 15.4137 20.7458 15.7282C20.7458 16.1501 20.5782 16.5546 20.28 16.8529C19.9817 17.1512 19.5771 17.3187 19.1553 17.3187ZM21.3343 9.71884L14.9723 13.9601C14.7981 14.0764 14.5933 14.1384 14.3838 14.1384C14.1744 14.1384 13.9696 14.0764 13.7954 13.9601L7.43341 9.71884C7.31749 9.64156 7.21793 9.5422 7.14041 9.42645C7.06288 9.31069 7.00892 9.18079 6.9816 9.04418C6.95427 8.90757 6.95413 8.76691 6.98116 8.63024C7.0082 8.49357 7.06189 8.36356 7.13917 8.24764C7.29525 8.01353 7.53793 7.851 7.81383 7.79582C7.95045 7.7685 8.09111 7.76835 8.22778 7.79539C8.36445 7.82243 8.49445 7.87612 8.61038 7.9534L14.3838 11.8037L20.1573 7.96003C20.2732 7.88275 20.4032 7.82905 20.5399 7.80202C20.6766 7.77498 20.8172 7.77513 20.9539 7.80245C21.0905 7.82977 21.2204 7.88374 21.3361 7.96126C21.4519 8.03878 21.5512 8.13835 21.6285 8.25427C21.7058 8.37019 21.7595 8.50019 21.7865 8.63686C21.8136 8.77353 21.8134 8.91419 21.7861 9.05081C21.7588 9.18742 21.7048 9.31731 21.6273 9.43307C21.5498 9.54883 21.4502 9.64819 21.3343 9.72547V9.71884Z" fill="white"/>
</svg>
