<svg width="33" height="25" viewBox="0 0 33 25" fill="none" xmlns="http://www.w3.org/2000/svg">
<path d="M32.3225 7.44868C32.323 6.86744 32.1869 6.2942 31.9253 5.77515C31.6637 5.2561 31.2839 4.80575 30.8163 4.4604C30.3488 4.11505 29.8067 3.88434 29.2337 3.78686C28.6607 3.68938 28.0728 3.72787 27.5173 3.89921C26.9619 4.07055 26.4545 4.36996 26.036 4.77331C25.6175 5.17667 25.2996 5.67269 25.1078 6.22141C24.9161 6.77013 24.856 7.35621 24.9323 7.93243C25.0085 8.50866 25.2191 9.05891 25.547 9.53885L21.9962 13.9127L18.8033 6.57392C19.3856 6.08381 19.8032 5.42649 19.9993 4.69108C20.1955 3.95567 20.1608 3.17773 19.9 2.46269C19.6391 1.74766 19.1647 1.13013 18.5411 0.693797C17.9174 0.257465 17.1747 0.0234375 16.4136 0.0234375C15.6525 0.0234375 14.9097 0.257465 14.2861 0.693797C13.6625 1.13013 13.1881 1.74766 12.9272 2.46269C12.6664 3.17773 12.6317 3.95567 12.8278 4.69108C13.024 5.42649 13.4416 6.08381 14.0239 6.57392L10.8389 13.9087L7.28817 9.53487C7.74429 8.86653 7.96949 8.06743 7.92946 7.25927C7.88942 6.4511 7.58635 5.67817 7.06641 5.05818C6.54646 4.43819 5.83813 4.00512 5.04929 3.82493C4.26046 3.64474 3.43434 3.7273 2.69677 4.06004C1.9592 4.39278 1.35058 4.95746 0.963617 5.66809C0.576653 6.37872 0.432545 7.19634 0.553242 7.99645C0.673939 8.79655 1.05283 9.53528 1.6322 10.1001C2.21157 10.665 2.95968 11.025 3.76259 11.1254L5.68178 22.6418C5.76428 23.1369 6.01974 23.5867 6.40271 23.9112C6.78567 24.2357 7.27132 24.4138 7.77327 24.4139H25.0619C25.5638 24.4138 26.0495 24.2357 26.4324 23.9112C26.8154 23.5867 27.0709 23.1369 27.1534 22.6418L29.0712 11.1307C29.9688 11.0186 30.7945 10.5825 31.3932 9.90453C31.9919 9.22652 32.3223 8.35319 32.3225 7.44868ZM16.4176 2.14706C16.7321 2.14706 17.0396 2.24034 17.3012 2.4151C17.5628 2.58987 17.7666 2.83827 17.887 3.12889C18.0074 3.41952 18.0389 3.73931 17.9775 4.04783C17.9161 4.35636 17.7646 4.63976 17.5422 4.86219C17.3198 5.08462 17.0364 5.2361 16.7279 5.29747C16.4193 5.35884 16.0995 5.32735 15.8089 5.20697C15.5183 5.08659 15.2699 4.88273 15.0951 4.62117C14.9204 4.35962 14.8271 4.05211 14.8271 3.73755C14.8271 3.31572 14.9947 2.91117 15.2929 2.6129C15.5912 2.31463 15.9957 2.14706 16.4176 2.14706ZM2.63334 7.44868C2.63334 7.13412 2.72662 6.82661 2.90139 6.56506C3.07615 6.3035 3.32455 6.09965 3.61517 5.97927C3.9058 5.85888 4.22559 5.82739 4.53412 5.88876C4.84264 5.95013 5.12604 6.10161 5.34847 6.32404C5.57091 6.54647 5.72239 6.82987 5.78376 7.1384C5.84512 7.44692 5.81363 7.76672 5.69325 8.05734C5.57287 8.34796 5.36901 8.59636 5.10746 8.77113C4.8459 8.94589 4.5384 9.03917 4.22383 9.03917C3.802 9.03917 3.39746 8.8716 3.09918 8.57333C2.80091 8.27506 2.63334 7.87051 2.63334 7.44868ZM28.6113 9.03917C28.2967 9.03917 27.9892 8.94589 27.7277 8.77113C27.4661 8.59636 27.2623 8.34796 27.1419 8.05734C27.0215 7.76672 26.99 7.44692 27.0514 7.1384C27.1128 6.82987 27.2642 6.54647 27.4867 6.32404C27.7091 6.10161 27.9925 5.95013 28.301 5.88876C28.6095 5.82739 28.9293 5.85888 29.22 5.97927C29.5106 6.09965 29.759 6.3035 29.9338 6.56506C30.1085 6.82661 30.2018 7.13412 30.2018 7.44868C30.2018 7.87051 30.0342 8.27506 29.736 8.57333C29.4377 8.8716 29.0331 9.03917 28.6113 9.03917Z" fill="white"/>
</svg>
