<svg width="35" height="34" viewBox="0 0 35 34" fill="none" xmlns="http://www.w3.org/2000/svg">
<path d="M17.1527 -0.00195312C13.7973 -0.00195312 10.5173 0.993039 7.72735 2.8572C4.93744 4.72136 2.76296 7.37096 1.47891 10.4709C0.194851 13.5709 -0.141117 16.9821 0.513489 20.273C1.1681 23.5639 2.78387 26.5868 5.1565 28.9595C7.52913 31.3321 10.552 32.9479 13.843 33.6025C17.1339 34.2571 20.545 33.9211 23.645 32.6371C26.745 31.353 29.3946 29.1785 31.2588 26.3886C33.1229 23.5987 34.1179 20.3187 34.1179 16.9633C34.1132 12.4653 32.3242 8.15285 29.1437 4.97229C25.9631 1.79172 21.6507 0.00279684 17.1527 -0.00195312ZM11.2801 11.7432C11.6673 11.7432 12.0458 11.858 12.3677 12.0731C12.6896 12.2882 12.9405 12.5939 13.0887 12.9516C13.2368 13.3093 13.2756 13.7029 13.2001 14.0826C13.1245 14.4623 12.9381 14.8111 12.6643 15.0849C12.3906 15.3587 12.0418 15.5451 11.662 15.6206C11.2823 15.6962 10.8887 15.6574 10.531 15.5092C10.1733 15.3611 9.86761 15.1102 9.65252 14.7883C9.43742 14.4663 9.32262 14.0879 9.32262 13.7007C9.32262 13.1815 9.52886 12.6836 9.89596 12.3165C10.2631 11.9494 10.761 11.7432 11.2801 11.7432ZM24.8066 21.5308C23.1281 24.4328 20.3386 26.0984 17.1527 26.0984C13.9668 26.0984 11.1774 24.4345 9.49879 21.5308C9.40437 21.3823 9.34097 21.2162 9.3124 21.0425C9.28384 20.8688 9.2907 20.6912 9.33257 20.5202C9.37445 20.3493 9.45047 20.1886 9.55606 20.0477C9.66166 19.9069 9.79465 19.7889 9.94703 19.7009C10.0994 19.6128 10.268 19.5564 10.4428 19.5352C10.6175 19.514 10.7947 19.5283 10.9637 19.5774C11.1328 19.6264 11.2901 19.7091 11.4264 19.8206C11.5626 19.932 11.6749 20.0698 11.7565 20.2258C12.975 22.3318 14.8901 23.4883 17.1527 23.4883C19.4153 23.4883 21.3304 22.3301 22.549 20.2258C22.6305 20.0698 22.7428 19.932 22.8791 19.8206C23.0153 19.7091 23.1727 19.6264 23.3417 19.5774C23.5107 19.5283 23.6879 19.514 23.8627 19.5352C24.0374 19.5564 24.206 19.6128 24.3584 19.7009C24.5108 19.7889 24.6438 19.9069 24.7494 20.0477C24.855 20.1886 24.931 20.3493 24.9728 20.5202C25.0147 20.6912 25.0216 20.8688 24.993 21.0425C24.9645 21.2162 24.9011 21.3823 24.8066 21.5308ZM23.0253 15.6582C22.6381 15.6582 22.2597 15.5434 21.9377 15.3283C21.6158 15.1132 21.3649 14.8075 21.2168 14.4498C21.0686 14.0921 21.0298 13.6985 21.1054 13.3188C21.1809 12.9391 21.3673 12.5903 21.6411 12.3165C21.9149 12.0428 22.2637 11.8563 22.6434 11.7808C23.0231 11.7053 23.4167 11.744 23.7744 11.8922C24.1321 12.0404 24.4378 12.2913 24.6529 12.6132C24.868 12.9351 24.9828 13.3135 24.9828 13.7007C24.9828 14.2199 24.7766 14.7178 24.4095 15.0849C24.0424 15.452 23.5444 15.6582 23.0253 15.6582Z" fill="white"/>
</svg>
