<svg width="24" height="32" viewBox="0 0 24 32" fill="none" xmlns="http://www.w3.org/2000/svg">
<path d="M14.46 23.3558C14.46 23.7902 14.3356 24.2148 14.1026 24.576C13.8696 24.9372 13.5384 25.2187 13.1509 25.385C12.7634 25.5512 12.337 25.5947 11.9256 25.5099C11.5143 25.4252 11.1364 25.216 10.8398 24.9088C10.5433 24.6017 10.3413 24.2103 10.2595 23.7843C10.1776 23.3582 10.2196 22.9166 10.3801 22.5152C10.5406 22.1139 10.8125 21.7709 11.1612 21.5295C11.5099 21.2882 11.9199 21.1594 12.3394 21.1594C12.9018 21.1594 13.4412 21.3908 13.8389 21.8027C14.2366 22.2146 14.46 22.7732 14.46 23.3558ZM24.0029 12.9229V19.5121C24.0029 22.7159 22.7741 25.7886 20.5868 28.054C18.3994 30.3195 15.4327 31.5922 12.3394 31.5922C9.24599 31.5922 6.27931 30.3195 4.09196 28.054C1.90462 25.7886 0.675781 22.7159 0.675781 19.5121V7.43194C0.675781 6.84942 0.899206 6.29076 1.29691 5.87886C1.6946 5.46695 2.234 5.23555 2.79643 5.23555C3.35886 5.23555 3.89826 5.46695 4.29596 5.87886C4.69366 6.29076 4.91708 6.84942 4.91708 7.43194V15.1193C4.91708 15.4106 5.0288 15.6899 5.22764 15.8958C5.42649 16.1018 5.69619 16.2175 5.97741 16.2175C6.25862 16.2175 6.52832 16.1018 6.72717 15.8958C6.92602 15.6899 7.03773 15.4106 7.03773 15.1193V3.03916C7.03773 2.45664 7.26116 1.89798 7.65886 1.48608C8.05656 1.07418 8.59595 0.842773 9.15838 0.842773C9.72082 0.842773 10.2602 1.07418 10.6579 1.48608C11.0556 1.89798 11.279 2.45664 11.279 3.03916V14.0211C11.279 14.3124 11.3907 14.5917 11.5896 14.7976C11.7884 15.0036 12.0581 15.1193 12.3394 15.1193C12.6206 15.1193 12.8903 15.0036 13.0891 14.7976C13.288 14.5917 13.3997 14.3124 13.3997 14.0211V5.23555C13.3997 4.65303 13.6231 4.09437 14.0208 3.68247C14.4185 3.27057 14.9579 3.03916 15.5203 3.03916C16.0828 3.03916 16.6222 3.27057 17.0199 3.68247C17.4176 4.09437 17.641 4.65303 17.641 5.23555V16.2175C17.641 16.5088 17.7527 16.7881 17.9515 16.994C18.1504 17.2 18.4201 17.3157 18.7013 17.3157C18.9825 17.3157 19.2522 17.2 19.4511 16.994C19.6499 16.7881 19.7616 16.5088 19.7616 16.2175V12.9229C19.7616 12.3404 19.9851 11.7817 20.3828 11.3698C20.7805 10.9579 21.3199 10.7265 21.8823 10.7265C22.4447 10.7265 22.9841 10.9579 23.3818 11.3698C23.7795 11.7817 24.0029 12.3404 24.0029 12.9229ZM19.1758 23.11C19.083 22.9179 16.8563 18.4139 12.3394 18.4139C7.82237 18.4139 5.59569 22.9179 5.50291 23.11C5.46605 23.1863 5.44687 23.2705 5.44687 23.3558C5.44687 23.4411 5.46605 23.5252 5.50291 23.6015C5.59569 23.7937 7.82237 28.2976 12.3394 28.2976C16.8563 28.2976 19.083 23.7937 19.1758 23.6015C19.2127 23.5252 19.2319 23.4411 19.2319 23.3558C19.2319 23.2705 19.2127 23.1863 19.1758 23.11Z" fill="white"/>
</svg>
