<svg width="58" height="50" viewBox="0 0 58 50" fill="none" xmlns="http://www.w3.org/2000/svg">
<path d="M58.0037 16.3008C58.0037 34.0876 31.4735 48.4847 30.3437 49.0793C30.0459 49.2385 29.713 49.3218 29.3749 49.3218C29.0367 49.3218 28.7039 49.2385 28.4061 49.0793C27.2763 48.4847 0.746094 34.0876 0.746094 16.3008C0.75083 12.1241 2.42205 8.11973 5.39312 5.1663C8.36419 2.21288 12.3925 0.551583 16.5942 0.546875C21.8726 0.546875 26.4941 2.80325 29.3749 6.61723C32.2557 2.80325 36.8772 0.546875 42.1556 0.546875C46.3573 0.551583 50.3856 2.21288 53.3566 5.1663C56.3277 8.11973 57.9989 12.1241 58.0037 16.3008Z" fill="white"/>
</svg>
