<svg width="39" height="31" viewBox="0 0 39 31" fill="none" xmlns="http://www.w3.org/2000/svg">
<path d="M28.2203 28.0122C28.3271 28.3216 28.3022 28.6594 28.1513 28.9511C28.0004 29.2429 27.7357 29.4647 27.4156 29.5679C27.0954 29.6711 26.746 29.647 26.4441 29.5012C26.1422 29.3553 25.9127 29.0995 25.806 28.79L24.5336 25.1005C24.4808 24.9473 24.4597 24.7855 24.4715 24.6244C24.4833 24.4633 24.5279 24.306 24.6026 24.1615C24.6774 24.0171 24.7808 23.8883 24.907 23.7824C25.0333 23.6766 25.1799 23.5959 25.3384 23.5448C25.4969 23.4937 25.6643 23.4733 25.831 23.4848C25.9977 23.4962 26.1604 23.5393 26.3098 23.6115C26.4593 23.6837 26.5926 23.7837 26.7021 23.9057C26.8116 24.0278 26.8951 24.1694 26.948 24.3226L28.2203 28.0122ZM19.3788 23.4817C19.0414 23.4817 18.7177 23.6113 18.4791 23.842C18.2405 24.0726 18.1064 24.3854 18.1064 24.7116V29.6309C18.1064 29.9571 18.2405 30.2699 18.4791 30.5006C18.7177 30.7312 19.0414 30.8608 19.3788 30.8608C19.7163 30.8608 20.0399 30.7312 20.2785 30.5006C20.5172 30.2699 20.6512 29.9571 20.6512 29.6309V24.7116C20.6512 24.3854 20.5172 24.0726 20.2785 23.842C20.0399 23.6113 19.7163 23.4817 19.3788 23.4817ZM13.4193 23.5448C13.2607 23.4937 13.0934 23.4733 12.9267 23.4847C12.76 23.4962 12.5973 23.5392 12.4478 23.6115C12.2983 23.6837 12.165 23.7837 12.0556 23.9057C11.9461 24.0277 11.8625 24.1694 11.8097 24.3226L10.5373 28.0122C10.4306 28.3216 10.4554 28.6594 10.6063 28.9511C10.7573 29.2429 11.0219 29.4647 11.3421 29.5679C11.6623 29.6711 12.0117 29.647 12.3136 29.5012C12.6154 29.3553 12.8449 29.0995 12.9517 28.79L14.2241 25.1005C14.2769 24.9473 14.298 24.7855 14.2862 24.6244C14.2743 24.4633 14.2298 24.306 14.155 24.1615C14.0803 24.0171 13.9769 23.8882 13.8506 23.7824C13.7244 23.6766 13.5778 23.5958 13.4193 23.5448ZM38.4647 12.4132C38.4647 14.9067 36.3382 17.1619 32.4765 18.7607C28.9567 20.2196 24.3093 21.0221 19.3788 21.0221C14.4483 21.0221 9.80091 20.2196 6.28116 18.7607C2.41945 17.1619 0.292969 14.9067 0.292969 12.4132C0.292969 11.1265 0.876678 9.21718 3.66003 7.41701C5.46842 6.24712 7.94481 5.30169 10.8459 4.67293C11.6549 3.43403 12.7414 2.38656 14.0253 1.60784C15.3091 0.829126 16.7575 0.339045 18.2636 0.173779C19.7696 0.00851168 21.2948 0.172279 22.7266 0.652991C24.1584 1.1337 25.4603 1.91909 26.536 2.95116C27.0847 3.47597 27.5708 4.05867 27.985 4.68831C34.5569 6.12414 38.4647 8.9912 38.4647 12.4132ZM27.0132 9.95354C27.0157 8.69692 26.6838 7.4608 26.0493 6.36396L26.0398 6.35012C25.3677 5.19138 24.3849 4.22916 23.1948 3.56473C22.0047 2.90031 20.6513 2.55824 19.277 2.57452C15.1243 2.62679 11.7445 5.99501 11.7445 10.0811V10.5423C11.7429 10.8186 11.8385 11.0872 12.0157 11.304C12.1928 11.5207 12.441 11.6728 12.7195 11.7353C14.906 12.2012 17.1398 12.4286 19.3788 12.4132C21.6166 12.4306 23.8493 12.2053 26.035 11.7414C26.3139 11.6793 26.5626 11.5274 26.7404 11.3106C26.9181 11.0939 27.0143 10.8251 27.0132 10.5485V9.95354Z" fill="white"/>
</svg>
