<svg width="29" height="28" viewBox="0 0 29 28" fill="none" xmlns="http://www.w3.org/2000/svg">
<path d="M14.3702 0.352539C11.6439 0.352539 8.97887 1.16097 6.71207 2.6756C4.44526 4.19023 2.6785 6.34303 1.63521 8.86177C0.59191 11.3805 0.318936 14.1521 0.850804 16.8259C1.38267 19.4998 2.69549 21.9559 4.62325 23.8837C6.55101 25.8115 9.00713 27.1243 11.681 27.6561C14.3549 28.188 17.1264 27.915 19.6452 26.8717C22.1639 25.8284 24.3167 24.0617 25.8313 21.7949C27.346 19.5281 28.1544 16.863 28.1544 14.1368C28.1498 10.4824 26.6961 6.97894 24.1121 4.39488C21.528 1.81083 18.0246 0.357099 14.3702 0.352539ZM11.9394 13.3866C12.1383 13.5856 12.2501 13.8554 12.2501 14.1368C12.2501 14.4181 12.1383 14.688 11.9394 14.887C11.7404 15.0859 11.4706 15.1977 11.1892 15.1977C10.9078 15.1977 10.638 15.0859 10.439 14.887L9.06855 13.5152L7.69808 14.887C7.49912 15.0859 7.22927 15.1977 6.9479 15.1977C6.66652 15.1977 6.39668 15.0859 6.19772 14.887C5.99876 14.688 5.88698 14.4181 5.88698 14.1368C5.88698 13.8554 5.99876 13.5856 6.19772 13.3866L7.56951 12.0161L6.19772 10.6456C5.99876 10.4467 5.88698 10.1768 5.88698 9.89547C5.88698 9.6141 5.99876 9.34425 6.19772 9.14529C6.39668 8.94633 6.66652 8.83455 6.9479 8.83455C7.22927 8.83455 7.49912 8.94633 7.69808 9.14529L9.06855 10.5171L10.439 9.14529C10.638 8.94633 10.9078 8.83455 11.1892 8.83455C11.4706 8.83455 11.7404 8.94633 11.9394 9.14529C12.1383 9.34425 12.2501 9.6141 12.2501 9.89547C12.2501 10.1768 12.1383 10.4467 11.9394 10.6456L10.5676 12.0161L11.9394 13.3866ZM14.3702 22.6194C14.0556 22.6194 13.7481 22.5261 13.4865 22.3513C13.225 22.1766 13.0211 21.9282 12.9008 21.6375C12.7804 21.3469 12.7489 21.0271 12.8102 20.7186C12.8716 20.4101 13.0231 20.1267 13.2455 19.9042C13.468 19.6818 13.7514 19.5303 14.0599 19.469C14.3684 19.4076 14.6882 19.4391 14.9788 19.5595C15.2695 19.6798 15.5179 19.8837 15.6926 20.1453C15.8674 20.4068 15.9607 20.7143 15.9607 21.0289C15.9607 21.4507 15.7931 21.8553 15.4948 22.1535C15.1965 22.4518 14.792 22.6194 14.3702 22.6194ZM22.5426 13.3866C22.6411 13.4851 22.7193 13.6021 22.7726 13.7308C22.8259 13.8595 22.8534 13.9974 22.8534 14.1368C22.8534 14.2761 22.8259 14.414 22.7726 14.5428C22.7193 14.6715 22.6411 14.7884 22.5426 14.887C22.4441 14.9855 22.3272 15.0636 22.1984 15.1169C22.0697 15.1702 21.9318 15.1977 21.7925 15.1977C21.6531 15.1977 21.5152 15.1702 21.3865 15.1169C21.2577 15.0636 21.1408 14.9855 21.0423 14.887L19.6718 13.5152L18.3013 14.887C18.1024 15.0859 17.8325 15.1977 17.5512 15.1977C17.2698 15.1977 16.9999 15.0859 16.801 14.887C16.602 14.688 16.4902 14.4181 16.4902 14.1368C16.4902 13.8554 16.602 13.5856 16.801 13.3866L18.1728 12.0161L16.801 10.6456C16.602 10.4467 16.4902 10.1768 16.4902 9.89547C16.4902 9.6141 16.602 9.34425 16.801 9.14529C16.9999 8.94633 17.2698 8.83455 17.5512 8.83455C17.8325 8.83455 18.1024 8.94633 18.3013 9.14529L19.6718 10.5171L21.0423 9.14529C21.1408 9.04677 21.2577 8.96863 21.3865 8.91531C21.5152 8.86199 21.6531 8.83455 21.7925 8.83455C21.9318 8.83455 22.0697 8.86199 22.1984 8.91531C22.3272 8.96863 22.4441 9.04677 22.5426 9.14529C22.6411 9.2438 22.7193 9.36076 22.7726 9.48947C22.8259 9.61819 22.8534 9.75615 22.8534 9.89547C22.8534 10.0348 22.8259 10.1727 22.7726 10.3015C22.7193 10.4302 22.6411 10.5471 22.5426 10.6456L21.1708 12.0161L22.5426 13.3866Z" fill="white"/>
</svg>
