<svg width="35" height="34" viewBox="0 0 35 34" fill="none" xmlns="http://www.w3.org/2000/svg">
<path d="M34.0877 4.87403C33.9014 3.77579 33.3781 2.76267 32.5904 1.975C31.8027 1.18733 30.7896 0.664099 29.6913 0.477781C24.4092 -0.417783 14.4566 -0.82723 7.13537 6.49714C-0.1859 13.8215 0.220293 23.7722 1.11588 29.0526C1.30269 30.152 1.82714 31.166 2.61641 31.9538C3.40568 32.7415 4.42063 33.2641 5.52038 33.4489C7.37052 33.7644 9.24378 33.9248 11.1206 33.9285C16.3555 33.9285 22.8741 32.6235 28.0682 27.4295C35.3911 20.1084 34.9833 10.1544 34.0877 4.87403ZM5.94778 30.878C5.38305 30.782 4.86213 30.5128 4.45707 30.1077C4.05201 29.7027 3.78285 29.1818 3.6868 28.6171C3.23906 26.0928 3.12334 23.5208 3.3426 20.9664L13.5986 31.2222C11.0442 31.4415 8.47214 31.3257 5.94778 30.878ZM23.742 12.6682L21.4027 15.0058L22.4369 16.04C22.5659 16.1593 22.6694 16.3035 22.7414 16.4638C22.8133 16.6241 22.8521 16.7972 22.8554 16.9729C22.8588 17.1485 22.8267 17.3231 22.761 17.486C22.6952 17.6489 22.5973 17.7969 22.473 17.9211C22.3487 18.0453 22.2007 18.1431 22.0377 18.2086C21.8747 18.2742 21.7001 18.3062 21.5245 18.3027C21.3488 18.2991 21.1757 18.2602 21.0154 18.1881C20.8552 18.1161 20.7112 18.0124 20.592 17.8834L19.5593 16.8508L17.4892 18.9208L18.5235 19.9551C18.6525 20.0743 18.7562 20.2183 18.8282 20.3785C18.9003 20.5388 18.9392 20.7119 18.9428 20.8875C18.9463 21.0632 18.9143 21.2377 18.8487 21.4007C18.7832 21.5637 18.6854 21.7118 18.5612 21.8361C18.437 21.9604 18.289 22.0583 18.1261 22.124C17.9632 22.1897 17.7886 22.2219 17.613 22.2185C17.4373 22.2151 17.2641 22.1763 17.1038 22.1044C16.9435 22.0325 16.7994 21.929 16.6801 21.8L15.6442 20.7642L13.3049 23.1034C13.185 23.2297 13.0409 23.3307 12.8813 23.4004C12.7217 23.4701 12.5497 23.5072 12.3755 23.5094C12.2013 23.5117 12.0285 23.479 11.8671 23.4134C11.7058 23.3478 11.5592 23.2505 11.436 23.1273C11.3128 23.0042 11.2156 22.8576 11.1499 22.6962C11.0843 22.5349 11.0517 22.362 11.0539 22.1878C11.0561 22.0137 11.0932 21.8417 11.1629 21.6821C11.2327 21.5225 11.3337 21.3784 11.4599 21.2584L13.8009 18.9208L12.7666 17.8866C12.5378 17.6389 12.4138 17.3122 12.4205 16.975C12.4273 16.6378 12.5643 16.3163 12.8029 16.078C13.0415 15.8396 13.3631 15.7029 13.7003 15.6964C14.0375 15.6899 14.3641 15.8143 14.6116 16.0433L15.6459 17.0775L17.7143 15.0058L16.6801 13.9716C16.451 13.7241 16.3267 13.3975 16.3332 13.0603C16.3397 12.7231 16.4764 12.4015 16.7148 12.1629C16.9532 11.9243 17.2746 11.7873 17.6118 11.7805C17.949 11.7738 18.2757 11.8978 18.5235 12.1266L19.5593 13.1625L21.8986 10.8233C22.0186 10.697 22.1626 10.596 22.3223 10.5262C22.4819 10.4565 22.6539 10.4194 22.828 10.4172C23.0022 10.415 23.1751 10.4476 23.3364 10.5133C23.4978 10.5789 23.6444 10.6762 23.7675 10.7993C23.8907 10.9225 23.988 11.0691 24.0536 11.2304C24.1192 11.3918 24.1519 11.5646 24.1497 11.7388C24.1474 11.913 24.1104 12.085 24.0406 12.2446C23.9709 12.4042 23.8699 12.5482 23.7436 12.6682H23.742ZM31.861 12.9602L21.605 2.70445C22.3815 2.63268 23.1906 2.5919 24.0373 2.5919C25.787 2.59807 27.5332 2.75086 29.2574 3.04865C29.8218 3.145 30.3424 3.4143 30.7471 3.81932C31.1519 4.22435 31.4208 4.74509 31.5168 5.30958C31.9645 7.83388 32.0802 10.4059 31.861 12.9602Z" fill="white"/>
</svg>
